# xmcd
#
# Track frame offsets:
#	150
#	20195
#	34391
#	52281
#	67861
#	86311
#	100877
#	115965
#	132928
#	148417
#	161524
#	176978
#	193370
#
# Disc length: 2835 seconds
#
# Revision: 1
# Processed by: cddbd v1.5.2PL0 Copyright (c) Steve Scherf et al.
# Submitted via: EZCDAudioConverter 1.3.4.1
#
DISCID=c90b110d
DTITLE=Wszystkie drogi prowadzą do Mrągowa
DYEAR=2011
DGENRE=Country
TTITLE0=Ryszard Wolbach - Jeśli bardzo czegoś chcesz
TTITLE1=Krystyna Mazur - Chcę góry przenosić
TTITLE2=Gang Marcela - Jeśli miałbym ciebie
TTITLE3=Cezary Makiewicz - Zakochajmy się znowu
TTITLE4=Władysław Magiera - Grzecznie czekaj
TTITLE5=Mirosław Kalisiewicz - Do biegu
TTITLE6=Anna Majkut - Polańska - Kochany mój
TTITLE7=Zbigniew Hofman - Nie warte łez
TTITLE8=Colorado Band - Nie mogę zasnąć
TTITLE9=Maria Gorajska (III miejsce) - Tylko nie spóźnij się, ja ciągle czekam
TTITLE10=Wojciech Dudkowski (II miejsce) - Moje serce to nie hotel
TTITLE11=Antoni Kania (I miejsce) - Ja w klaksonie mam harmonie
TTITLE12=Cezary Makiewicz (goście) - Wszystkie drogi prowadzą do Mrągowa
EXTD=
EXTT0=
EXTT1=
EXTT2=
EXTT3=
EXTT4=
EXTT5=
EXTT6=
EXTT7=
EXTT8=
EXTT9=
EXTT10=
EXTT11=
EXTT12=
PLAYORDER=
